# xmcd
#
# Track frame offsets: 
#        150
#        31383
#        75834
#        110109
#        145949
#        172321
#        203407
#        232651
#        255544
#        274603
#        313382
#
# Disc length: 4469 seconds
#
# Revision: 1
# Processed by: cddbd v1.5.2PL0 Copyright (c) Steve Scherf et al.
# Submitted via: ExactAudioCopy v0.99pb5
#
DISCID=9011730b
DTITLE=Chet Baker - Chet Baker in New York
DYEAR=1958
DGENRE=Jazz
TTITLE0=Fair Weather
TTITLE1=Hotel 49
TTITLE2=Blue Thoughts
TTITLE3=Polka Dots and Moonbeams
TTITLE4=Solar
TTITLE5=When Lights Are Low
TTITLE6=Soft Winds
TTITLE7=The Heather On The Hill
TTITLE8=I've Grown Accustomed To Her Face
TTITLE9=On The Street Where You Live
TTITLE10=Almost Like Being In Love
EXTD=YEAR: 2010
EXTT0=
EXTT1=
EXTT2=
EXTT3=
EXTT4=
EXTT5=
EXTT6=
EXTT7=
EXTT8=
EXTT9=
EXTT10=
PLAYORDER=
